G75*
%MOIN*%
%OFA0B0*%
%FSLAX25Y25*%
%IPPOS*%
%LPD*%
%AMOC8*
5,1,8,0,0,1.08239X$1,22.5*
%
%ADD10OC8,0.05200*%
%ADD11C,0.05200*%
%ADD12R,0.06000X0.25500*%
%ADD13OC8,0.06000*%
%ADD14C,0.08850*%
%ADD15C,0.05200*%
%ADD16C,0.05600*%
%ADD17C,0.01000*%
%ADD18C,0.04000*%
D10*
X0032800Y0099518D03*
X0032800Y0119518D03*
X0017800Y0139518D03*
X0017800Y0164518D03*
X0017800Y0189518D03*
X0047800Y0189518D03*
X0047800Y0164518D03*
X0047800Y0139518D03*
X0077800Y0148518D03*
X0077800Y0198518D03*
X0197800Y0269518D03*
X0207800Y0269518D03*
D11*
X0205400Y0229518D02*
X0200200Y0229518D01*
X0200200Y0219518D02*
X0205400Y0219518D01*
X0205400Y0209518D02*
X0200200Y0209518D01*
X0200200Y0199518D02*
X0205400Y0199518D01*
X0205400Y0189518D02*
X0200200Y0189518D01*
X0200200Y0179518D02*
X0205400Y0179518D01*
X0205400Y0169518D02*
X0200200Y0169518D01*
X0200200Y0159518D02*
X0205400Y0159518D01*
X0205400Y0149518D02*
X0200200Y0149518D01*
X0200200Y0139518D02*
X0205400Y0139518D01*
X0205400Y0129518D02*
X0200200Y0129518D01*
X0200200Y0119518D02*
X0205400Y0119518D01*
X0205400Y0109518D02*
X0200200Y0109518D01*
X0200200Y0099518D02*
X0205400Y0099518D01*
X0145400Y0099518D02*
X0140200Y0099518D01*
X0140200Y0109518D02*
X0145400Y0109518D01*
X0145400Y0119518D02*
X0140200Y0119518D01*
X0140200Y0129518D02*
X0145400Y0129518D01*
X0145400Y0139518D02*
X0140200Y0139518D01*
X0140200Y0149518D02*
X0145400Y0149518D01*
X0145400Y0159518D02*
X0140200Y0159518D01*
X0140200Y0169518D02*
X0145400Y0169518D01*
X0145400Y0179518D02*
X0140200Y0179518D01*
X0140200Y0189518D02*
X0145400Y0189518D01*
X0145400Y0199518D02*
X0140200Y0199518D01*
X0140200Y0209518D02*
X0145400Y0209518D01*
X0145400Y0219518D02*
X0140200Y0219518D01*
X0140200Y0229518D02*
X0145400Y0229518D01*
X0050400Y0214518D02*
X0045200Y0214518D01*
X0020400Y0214518D02*
X0015200Y0214518D01*
D12*
X0012800Y0014518D03*
X0022800Y0014518D03*
X0032800Y0014518D03*
X0042800Y0014518D03*
X0052800Y0014518D03*
X0062800Y0014518D03*
X0072800Y0014518D03*
X0082800Y0014518D03*
X0092800Y0014518D03*
X0102800Y0014518D03*
X0112800Y0014518D03*
X0122800Y0014518D03*
X0132800Y0014518D03*
X0142800Y0014518D03*
X0152800Y0014518D03*
X0162800Y0014518D03*
X0172800Y0014518D03*
X0182800Y0014518D03*
X0192800Y0014518D03*
X0202800Y0014518D03*
X0212800Y0014518D03*
X0222800Y0014518D03*
D13*
X0012900Y0245618D03*
X0012900Y0263418D03*
D14*
X0022700Y0268318D03*
X0022700Y0240718D03*
D15*
X0077800Y0190518D03*
X0077800Y0140518D03*
D16*
X0085000Y0119518D02*
X0090600Y0119518D01*
X0090600Y0109518D02*
X0085000Y0109518D01*
X0065600Y0109518D02*
X0060000Y0109518D01*
X0060000Y0119518D02*
X0065600Y0119518D01*
X0110000Y0119518D02*
X0115600Y0119518D01*
X0115600Y0109518D02*
X0110000Y0109518D01*
X0110000Y0099518D02*
X0115600Y0099518D01*
D17*
X0112800Y0099518D02*
X0112800Y0014518D01*
X0102800Y0014518D02*
X0102800Y0094518D01*
X0087800Y0109518D01*
X0080300Y0108268D02*
X0087800Y0100768D01*
X0087800Y0019518D01*
X0092800Y0014518D01*
X0082800Y0014518D02*
X0082800Y0023268D01*
X0062800Y0043268D01*
X0062800Y0109518D01*
X0062800Y0119518D02*
X0072800Y0129518D01*
X0072800Y0149518D01*
X0102800Y0179518D01*
X0142800Y0179518D01*
X0150300Y0182018D02*
X0142800Y0189518D01*
X0152800Y0189518D02*
X0142800Y0199518D01*
X0142800Y0209518D02*
X0162800Y0189518D01*
X0162800Y0014518D01*
X0152800Y0014518D02*
X0152800Y0189518D01*
X0150300Y0182018D02*
X0150300Y0030768D01*
X0142800Y0023268D01*
X0142800Y0014518D01*
X0135300Y0030768D02*
X0135300Y0122018D01*
X0142800Y0129518D01*
X0142800Y0139518D02*
X0126550Y0123268D01*
X0126550Y0030768D01*
X0120300Y0047018D02*
X0120300Y0127018D01*
X0142800Y0149518D01*
X0142800Y0169518D02*
X0105300Y0132018D01*
X0105300Y0032018D01*
X0107800Y0029518D01*
X0066550Y0082018D02*
X0077800Y0093268D01*
X0077800Y0140518D01*
X0087800Y0119518D02*
X0080300Y0112018D01*
X0080300Y0108268D01*
X0047800Y0139518D02*
X0135300Y0227018D01*
X0135300Y0230768D01*
X0174050Y0269518D01*
X0197800Y0269518D01*
X0202800Y0264518D02*
X0202800Y0229518D01*
X0215300Y0217018D01*
X0215300Y0039518D01*
X0222800Y0032018D01*
X0222800Y0014518D01*
X0212800Y0014518D02*
X0212800Y0189518D01*
X0202800Y0199518D01*
X0195300Y0202018D02*
X0202800Y0209518D01*
X0192800Y0209518D02*
X0202800Y0219518D01*
X0192800Y0209518D02*
X0192800Y0014518D01*
X0202800Y0014518D02*
X0202800Y0023268D01*
X0195300Y0030768D01*
X0195300Y0202018D01*
X0202800Y0179518D02*
X0210300Y0172018D01*
X0210300Y0032018D01*
X0207800Y0029518D01*
X0182800Y0014518D02*
X0182800Y0229518D01*
X0142800Y0229518D01*
X0142800Y0219518D02*
X0172800Y0219518D01*
X0172800Y0014518D01*
X0142800Y0099518D02*
X0142800Y0109518D01*
X0077800Y0189518D02*
X0077800Y0190518D01*
X0077800Y0189518D02*
X0072800Y0189518D01*
X0047800Y0164518D01*
X0042800Y0189518D02*
X0042800Y0198268D01*
X0077800Y0198268D01*
X0077800Y0198518D01*
X0047800Y0214518D02*
X0042800Y0209518D01*
X0042800Y0198268D01*
X0042800Y0189518D02*
X0017800Y0164518D01*
X0017800Y0189518D02*
X0017800Y0214518D01*
X0007800Y0224518D01*
X0007800Y0258268D01*
X0012800Y0263268D01*
X0012900Y0263418D01*
X0017800Y0139518D02*
X0032800Y0124518D01*
X0032800Y0119518D01*
X0027800Y0114518D01*
X0027800Y0039518D01*
X0061550Y0039518D01*
X0032800Y0014518D02*
X0027800Y0014518D01*
X0027800Y0039518D01*
X0012800Y0034518D02*
X0012800Y0030768D01*
X0012800Y0014518D01*
X0022800Y0014518D02*
X0027800Y0014518D01*
X0202800Y0264518D02*
X0207800Y0269518D01*
D18*
X0066550Y0082018D03*
X0061550Y0039518D03*
X0107800Y0029518D03*
X0120300Y0047018D03*
X0126550Y0030768D03*
X0135300Y0030768D03*
X0207800Y0029518D03*
X0222800Y0032018D03*
X0012800Y0030768D03*
M02*
