%
M48
M72
T01C0.02400
T02C0.03200
T03C0.03600
T04C0.04000
T05C0.05900
T06C0.12598
%
T01
X12800Y30768
X61550Y39518
X66550Y82018
X107800Y29518
X120300Y47018
X126550Y30768
X135300Y30768
X207800Y29518
X222800Y32018
T02
X202800Y99518
X202800Y109518
X202800Y119518
X202800Y129518
X202800Y139518
X202800Y149518
X202800Y159518
X202800Y169518
X202800Y179518
X202800Y189518
X202800Y199518
X202800Y209518
X202800Y219518
X202800Y229518
X197800Y269518
X207800Y269518
X142800Y229518
X142800Y219518
X142800Y209518
X142800Y199518
X142800Y189518
X142800Y179518
X142800Y169518
X142800Y159518
X142800Y149518
X142800Y139518
X142800Y129518
X142800Y119518
X142800Y109518
X142800Y99518
X77800Y140518
X77800Y148518
X47800Y139518
X32800Y119518
X17800Y139518
X17800Y164518
X17800Y189518
X17800Y214518
X47800Y214518
X47800Y189518
X47800Y164518
X77800Y190518
X77800Y198518
X32800Y99518
T03
X62800Y109518
X62800Y119518
X87800Y119518
X87800Y109518
X112800Y109518
X112800Y99518
X112800Y119518
T04
X12900Y245618
X12900Y263418
T05
X22700Y268318
X22700Y240718
T06
X116800Y167518
M30
