G75*
%MOIN*%
%OFA0B0*%
%FSLAX25Y25*%
%IPPOS*%
%LPD*%
%AMOC8*
5,1,8,0,0,1.08239X$1,22.5*
%
%ADD10C,0.13398*%
%ADD11OC8,0.06000*%
%ADD12C,0.06000*%
%ADD13R,0.06800X0.26300*%
%ADD14OC8,0.06800*%
%ADD15C,0.09650*%
%ADD16C,0.06000*%
%ADD17C,0.06400*%
%ADD18C,0.04800*%
D10*
X0116800Y0167518D03*
D11*
X0077800Y0148518D03*
X0047800Y0139518D03*
X0032800Y0119518D03*
X0017800Y0139518D03*
X0017800Y0164518D03*
X0017800Y0189518D03*
X0047800Y0189518D03*
X0047800Y0164518D03*
X0077800Y0198518D03*
X0032800Y0099518D03*
X0197800Y0269518D03*
X0207800Y0269518D03*
D12*
X0205400Y0229518D02*
X0200200Y0229518D01*
X0200200Y0219518D02*
X0205400Y0219518D01*
X0205400Y0209518D02*
X0200200Y0209518D01*
X0200200Y0199518D02*
X0205400Y0199518D01*
X0205400Y0189518D02*
X0200200Y0189518D01*
X0200200Y0179518D02*
X0205400Y0179518D01*
X0205400Y0169518D02*
X0200200Y0169518D01*
X0200200Y0159518D02*
X0205400Y0159518D01*
X0205400Y0149518D02*
X0200200Y0149518D01*
X0200200Y0139518D02*
X0205400Y0139518D01*
X0205400Y0129518D02*
X0200200Y0129518D01*
X0200200Y0119518D02*
X0205400Y0119518D01*
X0205400Y0109518D02*
X0200200Y0109518D01*
X0200200Y0099518D02*
X0205400Y0099518D01*
X0145400Y0099518D02*
X0140200Y0099518D01*
X0140200Y0109518D02*
X0145400Y0109518D01*
X0145400Y0119518D02*
X0140200Y0119518D01*
X0140200Y0129518D02*
X0145400Y0129518D01*
X0145400Y0139518D02*
X0140200Y0139518D01*
X0140200Y0149518D02*
X0145400Y0149518D01*
X0145400Y0159518D02*
X0140200Y0159518D01*
X0140200Y0169518D02*
X0145400Y0169518D01*
X0145400Y0179518D02*
X0140200Y0179518D01*
X0140200Y0189518D02*
X0145400Y0189518D01*
X0145400Y0199518D02*
X0140200Y0199518D01*
X0140200Y0209518D02*
X0145400Y0209518D01*
X0145400Y0219518D02*
X0140200Y0219518D01*
X0140200Y0229518D02*
X0145400Y0229518D01*
X0050400Y0214518D02*
X0045200Y0214518D01*
X0020400Y0214518D02*
X0015200Y0214518D01*
D13*
X0012800Y0014518D03*
X0022800Y0014518D03*
X0032800Y0014518D03*
X0042800Y0014518D03*
X0052800Y0014518D03*
X0062800Y0014518D03*
X0072800Y0014518D03*
X0082800Y0014518D03*
X0092800Y0014518D03*
X0102800Y0014518D03*
X0112800Y0014518D03*
X0122800Y0014518D03*
X0132800Y0014518D03*
X0142800Y0014518D03*
X0152800Y0014518D03*
X0162800Y0014518D03*
X0172800Y0014518D03*
X0182800Y0014518D03*
X0192800Y0014518D03*
X0202800Y0014518D03*
X0212800Y0014518D03*
X0222800Y0014518D03*
D14*
X0012900Y0245618D03*
X0012900Y0263418D03*
D15*
X0022700Y0268318D03*
X0022700Y0240718D03*
D16*
X0077800Y0190518D03*
X0077800Y0140518D03*
D17*
X0085000Y0119518D02*
X0090600Y0119518D01*
X0090600Y0109518D02*
X0085000Y0109518D01*
X0065600Y0109518D02*
X0060000Y0109518D01*
X0060000Y0119518D02*
X0065600Y0119518D01*
X0110000Y0119518D02*
X0115600Y0119518D01*
X0115600Y0109518D02*
X0110000Y0109518D01*
X0110000Y0099518D02*
X0115600Y0099518D01*
D18*
X0120300Y0047018D03*
X0126550Y0030768D03*
X0135300Y0030768D03*
X0107800Y0029518D03*
X0066550Y0082018D03*
X0061550Y0039518D03*
X0012800Y0030768D03*
X0207800Y0029518D03*
X0222800Y0032018D03*
M02*
