G75*
%MOIN*%
%OFA0B0*%
%FSLAX25Y25*%
%IPPOS*%
%LPD*%
%AMOC8*
5,1,8,0,0,1.08239X$1,22.5*
%
%ADD10C,0.00000*%
%ADD11C,0.00500*%
D10*
X0110501Y0167518D02*
X0110503Y0167676D01*
X0110509Y0167834D01*
X0110519Y0167992D01*
X0110533Y0168150D01*
X0110551Y0168307D01*
X0110572Y0168464D01*
X0110598Y0168620D01*
X0110628Y0168776D01*
X0110661Y0168931D01*
X0110699Y0169084D01*
X0110740Y0169237D01*
X0110785Y0169389D01*
X0110834Y0169540D01*
X0110887Y0169689D01*
X0110943Y0169837D01*
X0111003Y0169983D01*
X0111067Y0170128D01*
X0111135Y0170271D01*
X0111206Y0170413D01*
X0111280Y0170553D01*
X0111358Y0170690D01*
X0111440Y0170826D01*
X0111524Y0170960D01*
X0111613Y0171091D01*
X0111704Y0171220D01*
X0111799Y0171347D01*
X0111896Y0171472D01*
X0111997Y0171594D01*
X0112101Y0171713D01*
X0112208Y0171830D01*
X0112318Y0171944D01*
X0112431Y0172055D01*
X0112546Y0172164D01*
X0112664Y0172269D01*
X0112785Y0172371D01*
X0112908Y0172471D01*
X0113034Y0172567D01*
X0113162Y0172660D01*
X0113292Y0172750D01*
X0113425Y0172836D01*
X0113560Y0172920D01*
X0113696Y0172999D01*
X0113835Y0173076D01*
X0113976Y0173148D01*
X0114118Y0173218D01*
X0114262Y0173283D01*
X0114408Y0173345D01*
X0114555Y0173403D01*
X0114704Y0173458D01*
X0114854Y0173509D01*
X0115005Y0173556D01*
X0115157Y0173599D01*
X0115310Y0173638D01*
X0115465Y0173674D01*
X0115620Y0173705D01*
X0115776Y0173733D01*
X0115932Y0173757D01*
X0116089Y0173777D01*
X0116247Y0173793D01*
X0116404Y0173805D01*
X0116563Y0173813D01*
X0116721Y0173817D01*
X0116879Y0173817D01*
X0117037Y0173813D01*
X0117196Y0173805D01*
X0117353Y0173793D01*
X0117511Y0173777D01*
X0117668Y0173757D01*
X0117824Y0173733D01*
X0117980Y0173705D01*
X0118135Y0173674D01*
X0118290Y0173638D01*
X0118443Y0173599D01*
X0118595Y0173556D01*
X0118746Y0173509D01*
X0118896Y0173458D01*
X0119045Y0173403D01*
X0119192Y0173345D01*
X0119338Y0173283D01*
X0119482Y0173218D01*
X0119624Y0173148D01*
X0119765Y0173076D01*
X0119904Y0172999D01*
X0120040Y0172920D01*
X0120175Y0172836D01*
X0120308Y0172750D01*
X0120438Y0172660D01*
X0120566Y0172567D01*
X0120692Y0172471D01*
X0120815Y0172371D01*
X0120936Y0172269D01*
X0121054Y0172164D01*
X0121169Y0172055D01*
X0121282Y0171944D01*
X0121392Y0171830D01*
X0121499Y0171713D01*
X0121603Y0171594D01*
X0121704Y0171472D01*
X0121801Y0171347D01*
X0121896Y0171220D01*
X0121987Y0171091D01*
X0122076Y0170960D01*
X0122160Y0170826D01*
X0122242Y0170690D01*
X0122320Y0170553D01*
X0122394Y0170413D01*
X0122465Y0170271D01*
X0122533Y0170128D01*
X0122597Y0169983D01*
X0122657Y0169837D01*
X0122713Y0169689D01*
X0122766Y0169540D01*
X0122815Y0169389D01*
X0122860Y0169237D01*
X0122901Y0169084D01*
X0122939Y0168931D01*
X0122972Y0168776D01*
X0123002Y0168620D01*
X0123028Y0168464D01*
X0123049Y0168307D01*
X0123067Y0168150D01*
X0123081Y0167992D01*
X0123091Y0167834D01*
X0123097Y0167676D01*
X0123099Y0167518D01*
X0123097Y0167360D01*
X0123091Y0167202D01*
X0123081Y0167044D01*
X0123067Y0166886D01*
X0123049Y0166729D01*
X0123028Y0166572D01*
X0123002Y0166416D01*
X0122972Y0166260D01*
X0122939Y0166105D01*
X0122901Y0165952D01*
X0122860Y0165799D01*
X0122815Y0165647D01*
X0122766Y0165496D01*
X0122713Y0165347D01*
X0122657Y0165199D01*
X0122597Y0165053D01*
X0122533Y0164908D01*
X0122465Y0164765D01*
X0122394Y0164623D01*
X0122320Y0164483D01*
X0122242Y0164346D01*
X0122160Y0164210D01*
X0122076Y0164076D01*
X0121987Y0163945D01*
X0121896Y0163816D01*
X0121801Y0163689D01*
X0121704Y0163564D01*
X0121603Y0163442D01*
X0121499Y0163323D01*
X0121392Y0163206D01*
X0121282Y0163092D01*
X0121169Y0162981D01*
X0121054Y0162872D01*
X0120936Y0162767D01*
X0120815Y0162665D01*
X0120692Y0162565D01*
X0120566Y0162469D01*
X0120438Y0162376D01*
X0120308Y0162286D01*
X0120175Y0162200D01*
X0120040Y0162116D01*
X0119904Y0162037D01*
X0119765Y0161960D01*
X0119624Y0161888D01*
X0119482Y0161818D01*
X0119338Y0161753D01*
X0119192Y0161691D01*
X0119045Y0161633D01*
X0118896Y0161578D01*
X0118746Y0161527D01*
X0118595Y0161480D01*
X0118443Y0161437D01*
X0118290Y0161398D01*
X0118135Y0161362D01*
X0117980Y0161331D01*
X0117824Y0161303D01*
X0117668Y0161279D01*
X0117511Y0161259D01*
X0117353Y0161243D01*
X0117196Y0161231D01*
X0117037Y0161223D01*
X0116879Y0161219D01*
X0116721Y0161219D01*
X0116563Y0161223D01*
X0116404Y0161231D01*
X0116247Y0161243D01*
X0116089Y0161259D01*
X0115932Y0161279D01*
X0115776Y0161303D01*
X0115620Y0161331D01*
X0115465Y0161362D01*
X0115310Y0161398D01*
X0115157Y0161437D01*
X0115005Y0161480D01*
X0114854Y0161527D01*
X0114704Y0161578D01*
X0114555Y0161633D01*
X0114408Y0161691D01*
X0114262Y0161753D01*
X0114118Y0161818D01*
X0113976Y0161888D01*
X0113835Y0161960D01*
X0113696Y0162037D01*
X0113560Y0162116D01*
X0113425Y0162200D01*
X0113292Y0162286D01*
X0113162Y0162376D01*
X0113034Y0162469D01*
X0112908Y0162565D01*
X0112785Y0162665D01*
X0112664Y0162767D01*
X0112546Y0162872D01*
X0112431Y0162981D01*
X0112318Y0163092D01*
X0112208Y0163206D01*
X0112101Y0163323D01*
X0111997Y0163442D01*
X0111896Y0163564D01*
X0111799Y0163689D01*
X0111704Y0163816D01*
X0111613Y0163945D01*
X0111524Y0164076D01*
X0111440Y0164210D01*
X0111358Y0164346D01*
X0111280Y0164483D01*
X0111206Y0164623D01*
X0111135Y0164765D01*
X0111067Y0164908D01*
X0111003Y0165053D01*
X0110943Y0165199D01*
X0110887Y0165347D01*
X0110834Y0165496D01*
X0110785Y0165647D01*
X0110740Y0165799D01*
X0110699Y0165952D01*
X0110661Y0166105D01*
X0110628Y0166260D01*
X0110598Y0166416D01*
X0110572Y0166572D01*
X0110551Y0166729D01*
X0110533Y0166886D01*
X0110519Y0167044D01*
X0110509Y0167202D01*
X0110503Y0167360D01*
X0110501Y0167518D01*
D11*
X0005202Y0001250D02*
X0229611Y0001250D01*
X0229611Y0026841D01*
X0233548Y0026841D01*
X0233548Y0295699D01*
X0001265Y0295699D01*
X0001265Y0026841D01*
X0005202Y0026841D01*
X0005202Y0001250D01*
M02*
